<?xml version="1.0" standalone="no"?>
<!DOCTYPE svg PUBLIC "-//W3C//DTD SVG 20010904//EN"
 "http://www.w3.org/TR/2001/REC-SVG-20010904/DTD/svg10.dtd">
<svg version="1.0" xmlns="http://www.w3.org/2000/svg"
 width="240.000000pt" height="240.000000pt" viewBox="0 0 240.000000 240.000000"
 preserveAspectRatio="xMidYMid meet">
<metadata>
Created by potrace 1.14, written by Peter Selinger 2001-2017
</metadata>
<g transform="translate(0.000000,240.000000) scale(0.100000,-0.100000)"
fill="#000000" stroke="none">
<path d="M0 1200 l0 -1200 1200 0 1200 0 0 1200 0 1200 -875 0 -874 0 -16 -31
c-9 -17 -19 -29 -22 -26 -2 3 3 17 12 31 l17 26 -321 0 -321 0 0 -1200z m573
1078 c-39 -58 -54 -94 -47 -115 5 -14 4 -15 -4 -4 -12 16 -30 7 -43 -22 -14
-30 -59 -103 -59 -96 0 19 35 84 83 152 15 22 27 45 27 51 0 14 52 76 63 76 4
0 -5 -19 -20 -42z m1568 -261 c16 -33 29 -65 29 -71 0 -6 7 -24 16 -41 21 -40
33 -330 15 -363 -16 -30 -33 -29 -22 1 39 102 5 356 -59 446 -23 31 -39 108
-21 97 7 -5 25 -35 42 -69z m-329 36 c46 4 57 1 78 -17 14 -13 30 -31 36 -42
6 -10 17 -19 25 -19 8 0 13 -8 11 -18 -2 -12 4 -21 17 -24 12 -3 19 -9 16 -13
-2 -4 8 -16 23 -27 38 -28 50 -78 48 -206 -2 -103 -3 -108 -29 -133 -15 -13
-27 -35 -27 -47 0 -18 -2 -19 -11 -7 -8 11 -9 7 -4 -16 10 -50 -13 -60 -66
-29 -24 13 -53 25 -64 25 -11 0 -30 6 -41 14 -11 8 -64 22 -117 32 -81 14
-105 15 -149 5 -29 -6 -61 -18 -72 -26 -16 -12 -7 -13 71 -8 62 4 92 2 97 -6
5 -7 -1 -11 -16 -11 -30 0 -141 -29 -148 -38 -3 -4 -39 -21 -80 -37 -58 -23
-76 -35 -78 -52 -4 -27 51 -82 90 -90 15 -3 28 -9 28 -13 0 -17 60 -71 89 -81
26 -9 31 -16 29 -38 -2 -18 2 -26 12 -26 8 0 14 8 14 17 -1 13 2 15 21 6 20
-9 84 -2 153 18 13 4 22 2 22 -4 0 -6 -8 -13 -17 -15 -10 -3 2 -5 26 -6 34 -1
42 2 38 13 -4 10 -1 13 8 10 23 -9 42 37 56 138 11 89 14 97 36 101 13 2 25 2
27 -2 2 -3 4 -37 5 -76 2 -81 22 -163 63 -254 31 -71 35 -103 13 -121 -19 -16
-40 -8 -40 16 0 30 -45 27 -71 -4 -11 -14 -25 -22 -31 -19 -20 13 -21 45 -2
66 26 28 24 32 -11 20 -16 -6 -30 -15 -30 -20 0 -5 -7 -9 -15 -9 -22 0 -55
-37 -55 -60 0 -31 46 -73 72 -67 12 3 34 3 49 0 26 -5 29 -9 27 -42 0 -20 2
-49 6 -66 6 -29 5 -30 -28 -32 -19 -2 -67 -15 -108 -29 -56 -21 -93 -27 -158
-28 l-85 -1 -5 35 c-4 24 -12 38 -30 46 -44 21 -143 62 -215 90 -77 29 -185
80 -199 94 -6 6 -3 12 7 16 9 3 17 11 17 16 0 6 -6 8 -14 5 -13 -5 -31 31 -21
41 6 6 45 -18 45 -28 0 -6 9 -10 19 -10 14 0 21 10 26 33 4 17 12 38 19 46 8
11 8 15 -3 19 -21 7 -99 90 -117 124 -13 25 -14 38 -4 79 7 29 20 54 31 60 10
5 19 15 19 22 0 7 9 18 20 25 17 10 18 15 8 31 -9 15 -8 24 5 45 10 14 22 26
27 26 6 0 10 7 10 16 0 12 8 14 45 8 54 -8 80 7 64 37 -9 17 -6 19 31 19 l42
0 -21 34 -21 34 21 5 c21 6 21 7 5 29 -9 13 -19 31 -23 41 -3 9 -9 17 -14 17
-5 0 -9 5 -9 12 0 6 -7 19 -16 29 -14 16 -14 18 5 24 11 3 29 0 40 -7 26 -16
42 -1 17 18 -19 13 -19 15 -1 54 19 41 29 48 41 29 4 -8 13 -4 25 12 23 29 24
48 4 55 -23 9 -18 24 9 24 14 0 44 19 75 46 49 44 56 47 112 48 32 1 64 7 71
14 9 9 16 8 29 -4 14 -12 31 -15 71 -11z m-1407 -255 c-12 -286 -15 -381 -16
-415 -1 -21 -5 -30 -14 -27 -8 4 -10 16 -5 43 4 25 2 47 -5 62 -21 38 -5 317
27 457 6 28 13 52 16 52 2 0 1 -78 -3 -172z m1695 -323 c-13 -14 -28 -25 -34
-25 -11 1 40 50 51 50 4 0 -4 -11 -17 -25z m-1674 -72 c-11 -11 -17 4 -9 23 7
18 8 18 11 1 2 -10 1 -21 -2 -24z m1684 -48 c0 -8 -4 -15 -10 -15 -5 0 -10 7
-10 15 0 8 5 15 10 15 6 0 10 -7 10 -15z m-411 -14 c10 -7 11 -13 2 -30 -16
-30 -28 -26 -28 9 0 32 4 35 26 21z m-1002 -33 c-3 -8 -6 -5 -6 6 -1 11 2 17
5 13 3 -3 4 -12 1 -19z m1423 18 c0 -3 -4 -8 -10 -11 -5 -3 -10 -1 -10 4 0 6
5 11 10 11 6 0 10 -2 10 -4z m-390 -36 c-6 -11 -13 -20 -16 -20 -2 0 0 9 6 20
6 11 13 20 16 20 2 0 0 -9 -6 -20z m-85 -10 c3 -5 -1 -10 -10 -10 -9 0 -13 5
-10 10 3 6 8 10 10 10 2 0 7 -4 10 -10z m175 -34 c0 -17 -14 -29 -23 -20 -8 8
3 34 14 34 5 0 9 -6 9 -14z m277 -118 c-3 -7 -5 -2 -5 12 0 14 2 19 5 13 2 -7
2 -19 0 -25z m-1758 -167 c-5 -96 -12 -177 -14 -180 -7 -7 -6 335 1 354 17 44
21 -16 13 -174z m-12 -348 c-3 -10 -5 -4 -5 12 0 17 2 24 5 18 2 -7 2 -21 0
-30z m1553 -160 c25 -40 34 -60 21 -49 -19 18 -71 98 -71 110 0 15 11 1 50
-61z m-1543 -93 c0 -32 -4 -57 -9 -54 -15 9 -9 114 7 114 1 0 2 -27 2 -60z m0
-187 c-3 -10 -5 -4 -5 12 0 17 2 24 5 18 2 -7 2 -21 0 -30z"/>
<path d="M1218 986 c-41 -31 -2 -80 44 -55 20 11 25 29 7 29 -5 0 -7 5 -3 11
3 6 0 15 -7 20 -18 11 -21 11 -41 -5z"/>
</g>
</svg>
